# Blender 4.0.2
# www.blender.org
mtllib spike.mtl
o Cube
v 0.000000 1.000000 0.000000
v 0.500000 0.000000 -0.500000
v 0.500000 0.000000 0.500000
v -0.500000 0.000000 -0.500000
v -0.500000 0.000000 0.500000
vn -0.0000 0.4472 0.8944
vn 0.8944 0.4472 -0.0000
vn -0.8944 0.4472 -0.0000
vn -0.0000 -1.0000 -0.0000
vn -0.0000 0.4472 -0.8944
vt 0.625000 0.250000
vt 0.125000 0.750000
vt 0.375000 0.750000
vt 0.375000 0.500000
vt 0.375000 0.000000
vt 0.375000 0.250000
vt 0.125000 0.500000
vt 0.625000 0.500000
s 0
usemtl Material
f 1/1/1 5/2/1 3/3/1
f 2/4/2 1/1/2 3/3/2
f 5/5/3 1/1/3 4/6/3
f 4/7/4 2/4/4 3/3/4 5/2/4
f 4/6/5 1/8/5 2/4/5
